<?xml version="1.0" encoding="UTF-8" standalone="no"?>
<!-- Created with Inkscape (http://www.inkscape.org/) -->
<svg
   xmlns:dc="http://purl.org/dc/elements/1.1/"
   xmlns:cc="http://creativecommons.org/ns#"
   xmlns:rdf="http://www.w3.org/1999/02/22-rdf-syntax-ns#"
   xmlns:svg="http://www.w3.org/2000/svg"
   xmlns="http://www.w3.org/2000/svg"
   xmlns:sodipodi="http://sodipodi.sourceforge.net/DTD/sodipodi-0.dtd"
   xmlns:inkscape="http://www.inkscape.org/namespaces/inkscape"
   width="744.09448819"
   height="1052.3622047"
   id="svg2"
   sodipodi:version="0.32"
   inkscape:version="0.46"
   sodipodi:docbase="/home/mishoo/work/thelib/gimp"
   sodipodi:docname="dynarchlib-logo.svg"
   inkscape:output_extension="org.inkscape.output.svg.inkscape">
  <defs
     id="defs4">
    <inkscape:perspective
       sodipodi:type="inkscape:persp3d"
       inkscape:vp_x="0 : 526.18109 : 1"
       inkscape:vp_y="0 : 1000 : 0"
       inkscape:vp_z="744.09448 : 526.18109 : 1"
       inkscape:persp3d-origin="372.04724 : 350.78739 : 1"
       id="perspective2423" />
    <pattern
       patternUnits="userSpaceOnUse"
       width="74.392659"
       height="11.307612"
       patternTransform="translate(160.26324,448.06622)"
       id="pattern9027">
      <g
         transform="matrix(1.0017582,0,0,0.5468766,-160.61041,-244.9886)"
         style="stroke:#000000;stroke-width:0.5;stroke-miterlimit:4;stroke-dasharray:none;stroke-opacity:1"
         id="g6102">
        <path
           style="fill:none;fill-rule:evenodd;stroke:#000000;stroke-width:0.5;stroke-linecap:butt;stroke-linejoin:miter;stroke-miterlimit:4;stroke-dasharray:none;stroke-opacity:1"
           d="M 160.51324,448.31621 L 234.4059,448.31621"
           id="path6078" />
        <path
           id="path6080"
           d="M 160.51324,450.31621 L 234.4059,450.31621"
           style="fill:none;fill-rule:evenodd;stroke:#000000;stroke-width:0.5;stroke-linecap:butt;stroke-linejoin:miter;stroke-miterlimit:4;stroke-dasharray:none;stroke-opacity:1" />
        <path
           style="fill:none;fill-rule:evenodd;stroke:#000000;stroke-width:0.5;stroke-linecap:butt;stroke-linejoin:miter;stroke-miterlimit:4;stroke-dasharray:none;stroke-opacity:1"
           d="M 160.51324,452.31621 L 234.4059,452.31621"
           id="path6082" />
        <path
           id="path6084"
           d="M 160.51324,454.31621 L 234.4059,454.31621"
           style="fill:none;fill-rule:evenodd;stroke:#000000;stroke-width:0.5;stroke-linecap:butt;stroke-linejoin:miter;stroke-miterlimit:4;stroke-dasharray:none;stroke-opacity:1" />
        <path
           style="fill:none;fill-rule:evenodd;stroke:#000000;stroke-width:0.5;stroke-linecap:butt;stroke-linejoin:miter;stroke-miterlimit:4;stroke-dasharray:none;stroke-opacity:1"
           d="M 160.51324,456.31621 L 234.4059,456.31621"
           id="path6086" />
        <path
           id="path6088"
           d="M 160.51324,458.31621 L 234.4059,458.31621"
           style="fill:none;fill-rule:evenodd;stroke:#000000;stroke-width:0.5;stroke-linecap:butt;stroke-linejoin:miter;stroke-miterlimit:4;stroke-dasharray:none;stroke-opacity:1" />
        <path
           style="fill:none;fill-rule:evenodd;stroke:#000000;stroke-width:0.5;stroke-linecap:butt;stroke-linejoin:miter;stroke-miterlimit:4;stroke-dasharray:none;stroke-opacity:1"
           d="M 160.51324,460.31621 L 234.4059,460.31621"
           id="path6090" />
        <path
           id="path6092"
           d="M 160.51324,462.31621 L 234.4059,462.31621"
           style="fill:none;fill-rule:evenodd;stroke:#000000;stroke-width:0.5;stroke-linecap:butt;stroke-linejoin:miter;stroke-miterlimit:4;stroke-dasharray:none;stroke-opacity:1" />
        <path
           style="fill:none;fill-rule:evenodd;stroke:#000000;stroke-width:0.5;stroke-linecap:butt;stroke-linejoin:miter;stroke-miterlimit:4;stroke-dasharray:none;stroke-opacity:1"
           d="M 160.51324,464.31621 L 234.4059,464.31621"
           id="path6094" />
        <path
           id="path6096"
           d="M 160.51324,466.31621 L 234.4059,466.31621"
           style="fill:none;fill-rule:evenodd;stroke:#000000;stroke-width:0.5;stroke-linecap:butt;stroke-linejoin:miter;stroke-miterlimit:4;stroke-dasharray:none;stroke-opacity:1" />
        <path
           style="fill:none;fill-rule:evenodd;stroke:#000000;stroke-width:0.5;stroke-linecap:butt;stroke-linejoin:miter;stroke-miterlimit:4;stroke-dasharray:none;stroke-opacity:1"
           d="M 160.51324,468.31621 L 234.4059,468.31621"
           id="path6098" />
        <path
           id="path6100"
           d="M 160.51324,468.31621 L 234.4059,468.31621"
           style="fill:none;fill-rule:evenodd;stroke:#000000;stroke-width:0.5;stroke-linecap:butt;stroke-linejoin:miter;stroke-miterlimit:4;stroke-dasharray:none;stroke-opacity:1" />
      </g>
    </pattern>
    <filter
       inkscape:collect="always"
       id="filter10045">
      <feGaussianBlur
         inkscape:collect="always"
         stdDeviation="0.14266097"
         id="feGaussianBlur10047" />
    </filter>
  </defs>
  <sodipodi:namedview
     id="base"
     pagecolor="#ffffff"
     bordercolor="#666666"
     borderopacity="1.0"
     gridtolerance="10000"
     guidetolerance="10"
     objecttolerance="10"
     inkscape:pageopacity="0.0"
     inkscape:pageshadow="2"
     inkscape:zoom="2"
     inkscape:cx="297.03713"
     inkscape:cy="547.14608"
     inkscape:document-units="px"
     inkscape:current-layer="layer1"
     showguides="true"
     inkscape:guide-bbox="true"
     inkscape:window-width="1592"
     inkscape:window-height="1125"
     inkscape:window-x="0"
     inkscape:window-y="28"
     showgrid="false" />
  <metadata
     id="metadata7">
    <rdf:RDF>
      <cc:Work
         rdf:about="">
        <dc:format>image/svg+xml</dc:format>
        <dc:type
           rdf:resource="http://purl.org/dc/dcmitype/StillImage" />
      </cc:Work>
    </rdf:RDF>
  </metadata>
  <g
     inkscape:label="Layer 1"
     inkscape:groupmode="layer"
     id="layer1">
    <path
       style="opacity:1;fill:#c3b8f3;fill-opacity:1;fill-rule:evenodd;stroke:#000000;stroke-width:1.5;stroke-miterlimit:4;stroke-dasharray:none;stroke-opacity:1"
       d="M 171.3125 365.28125 L 192.65625 402.25 L 196.25 379.5625 L 189.53125 381.875 L 193.0625 365.28125 L 171.3125 365.28125 z M 214.375 365.28125 L 205.90625 383.78125 L 213.46875 381.90625 L 197 409.78125 L 202.15625 418.6875 L 232.96875 365.28125 L 214.375 365.28125 z "
       id="path2162" />
    <g
       id="g3143">
      <path
         transform="translate(160.86679,102.02541)"
         sodipodi:type="star"
         style="opacity:1;fill:#c0b0e0;fill-opacity:1;fill-rule:evenodd;stroke:#000000;stroke-width:1.5;stroke-miterlimit:4;stroke-dasharray:none;stroke-opacity:1"
         id="path3139"
         sodipodi:sides="3"
         sodipodi:cx="202.14285"
         sodipodi:cy="383.07648"
         sodipodi:r1="35.606552"
         sodipodi:r2="51.116364"
         sodipodi:arg1="-0.52359878"
         sodipodi:arg2="0.52359878"
         inkscape:flatsided="true"
         inkscape:rounded="3.469447e-18"
         inkscape:randomized="0"
         d="M 232.97903,365.2732 L 202.14285,418.68303 L 171.30667,365.2732 L 232.97903,365.2732 z " />
      <path
         style="fill:#ffffff;fill-opacity:1;fill-rule:evenodd;stroke:#000000;stroke-width:1.06331325px;stroke-linecap:butt;stroke-linejoin:miter;stroke-opacity:1"
         d="M 354.63956,463.8693 L 350.38339,483.89181 L 357.11209,481.60281 L 350.34259,524.58139 L 374.33099,483.92502 L 366.76582,485.79629 L 376.7604,463.92182 L 354.63956,463.8693 z "
         id="path3141"
         sodipodi:nodetypes="cccccccc" />
    </g>
    <text
       xml:space="preserve"
       style="font-size:28.19271469px;font-style:normal;font-variant:normal;font-weight:bold;font-stretch:normal;text-align:start;line-height:125%;writing-mode:lr-tb;text-anchor:start;fill:#000000;fill-opacity:1;stroke:none;stroke-width:1px;stroke-linecap:butt;stroke-linejoin:miter;stroke-opacity:1;font-family:Agency FB"
       x="245.5961"
       y="395.20505"
       id="text4117"
       sodipodi:linespacing="125%"><tspan
         sodipodi:role="line"
         id="tspan4119"
         x="245.5961"
         y="395.20505">DynarchLIB</tspan></text>
    <path
       id="path6074"
       d="M 238.98647,303.89072 L 256.43553,368.32561 L 259.37351,328.78231 L 253.88077,332.8129 L 256.76765,303.89072 L 238.98647,303.89072 z M 274.19116,303.89072 L 267.26774,336.13541 L 273.45028,332.86736 L 259.98666,381.45226 L 264.20202,396.97546 L 289.39202,303.89072 L 274.19116,303.89072 z "
       style="opacity:1;fill:#c3b8f3;fill-opacity:1;fill-rule:evenodd;stroke:#000000;stroke-width:1.79054427;stroke-miterlimit:4;stroke-dasharray:none;stroke-opacity:1" />
    <path
       style="fill:none;fill-rule:evenodd;stroke:none;stroke-width:0.37008044;stroke-linecap:butt;stroke-linejoin:miter;stroke-miterlimit:4;stroke-dasharray:none;stroke-opacity:1"
       d="M 164.16059,459.95136 L 238.18317,459.95136"
       id="path10089" />
    <path
       sodipodi:type="star"
       style="opacity:1;fill:none;fill-opacity:1;fill-rule:evenodd;stroke:none;stroke-width:0.5;stroke-miterlimit:4;stroke-dasharray:none;stroke-opacity:1"
       id="path12031"
       sodipodi:sides="3"
       sodipodi:cx="167.75"
       sodipodi:cy="540.11218"
       sodipodi:r1="62.579949"
       sodipodi:r2="31.289974"
       sodipodi:arg1="0.79104782"
       sodipodi:arg2="1.8382454"
       inkscape:flatsided="true"
       inkscape:rounded="3.469447e-18"
       inkscape:randomized="0"
       d="M 211.75,584.61218 L 107.21187,555.9673 L 184.28813,479.75707 L 211.75,584.61218 z " />
    <g
       id="g14963"
       transform="translate(152.25,133)">
      <path
         style="font-size:28.19271469px;font-style:normal;font-variant:normal;font-weight:bold;font-stretch:normal;text-align:start;line-height:125%;writing-mode:lr-tb;text-anchor:start;fill:none;fill-opacity:1;stroke:#000000;stroke-width:0.62400001;stroke-linecap:butt;stroke-linejoin:miter;stroke-miterlimit:4;stroke-dasharray:none;stroke-opacity:1;filter:url(#filter10045);font-family:Agency FB"
         d="M 146.29759,484.66951 C 146.29758,485.93598 145.92131,486.93172 145.16878,487.65672 C 144.41623,488.37255 143.40214,488.73047 142.1265,488.73047 L 135.56013,488.73047 L 135.56013,467.18672 L 142.1265,467.18672 C 143.40214,467.18674 144.41623,467.55383 145.16878,468.288 C 145.92131,469.01303 146.29758,470.00876 146.29759,471.27521 L 146.29759,484.66951 M 143.06259,484.13263 L 143.06259,471.75702 C 143.06258,470.55481 142.43393,469.9537 141.17665,469.95368 L 138.78137,469.95368 L 138.78137,485.96351 L 141.09405,485.96351 C 142.4064,485.96351 143.06258,485.35322 143.06259,484.13263 M 169.06651,488.73047 L 165.90034,488.73047 L 165.90034,477.45614 L 162.94065,477.5112 L 162.94065,488.73047 L 159.78825,488.73047 L 159.78825,474.82684 L 162.94065,474.82684 L 162.94065,475.33618 C 163.67483,475.21688 164.40443,475.10217 165.12944,474.99203 C 166.02881,474.8452 166.76759,474.77179 167.34576,474.77177 C 168.49292,474.77179 169.0665,475.33619 169.06651,476.46499 L 169.06651,488.73047 M 180.36837,488.73047 L 177.35363,488.73047 L 177.35363,488.24866 C 176.63779,488.35879 175.92196,488.46892 175.20613,488.57904 C 174.27004,488.7167 173.5588,488.78553 173.07241,488.78553 C 171.92524,488.78553 171.35166,488.22113 171.35166,487.09232 L 171.35166,482.0815 C 171.35166,480.93435 171.9436,480.36076 173.12747,480.36076 L 177.38116,480.36076 L 177.38116,477.16705 L 174.36641,477.16705 L 174.36641,479.14935 L 171.51685,479.14935 L 171.51685,476.54758 C 171.51685,475.40043 172.10879,474.82685 173.29266,474.82684 L 178.6201,474.82684 C 179.78561,474.82685 180.36836,475.40043 180.36837,476.54758 L 180.36837,488.73047 M 177.38116,486.22506 L 177.38116,482.49448 L 174.36641,482.49448 L 174.36641,486.33519 L 177.38116,486.22506 M 191.46375,480.63608 L 188.33887,480.63608 L 188.33887,477.45614 L 185.84723,477.5112 L 185.84723,488.73047 L 182.69482,488.73047 L 182.69482,474.82684 L 185.84723,474.82684 L 185.84723,475.33618 C 186.49882,475.21688 187.14582,475.09758 187.78823,474.97826 C 188.5683,474.84061 189.21989,474.77179 189.743,474.77177 C 190.89016,474.77179 191.46374,475.33619 191.46375,476.46499 L 191.46375,480.63608 M 202.25627,487.00972 C 202.25626,488.15689 201.6735,488.73047 200.50799,488.73047 L 195.0429,488.73047 C 193.85903,488.73047 193.26709,488.15689 193.26709,487.00972 L 193.26709,476.54758 C 193.26709,475.40043 193.85903,474.82685 195.0429,474.82684 L 200.50799,474.82684 C 201.6735,474.82685 202.25626,475.40043 202.25627,476.54758 L 202.25627,479.85142 L 199.18646,479.85142 L 199.18646,477.45614 L 196.36444,477.45614 L 196.36444,486.11493 L 199.18646,486.11493 L 199.18646,483.4581 L 202.25627,483.4581 L 202.25627,487.00972 M 213.83345,488.73047 L 210.66728,488.73047 L 210.66728,477.45614 L 207.70759,477.5112 L 207.70759,488.73047 L 204.55519,488.73047 L 204.55519,467.18672 L 207.70759,467.18672 L 207.70759,475.33618 C 208.44177,475.22606 209.17596,475.11135 209.91015,474.99203 C 210.83705,474.8452 211.57124,474.77179 212.11271,474.77177 C 213.25986,474.77179 213.83344,475.33619 213.83345,476.46499 L 213.83345,488.73047 M 224.80494,488.73047 L 216.33886,488.73047 L 216.33886,467.18672 L 219.5601,467.18672 L 219.5601,485.85338 L 224.80494,485.85338 L 224.80494,488.73047 M 230.02224,488.73047 L 226.801,488.73047 L 226.801,467.18672 L 230.02224,467.18672 L 230.02224,488.73047 M 243.32017,486.76193 C 243.32016,488.07429 242.66398,488.73047 241.35164,488.73047 L 232.7479,488.73047 L 232.7479,467.18672 L 241.29657,467.18672 C 242.57221,467.18674 243.21003,467.84751 243.21004,469.16902 L 243.21004,474.71671 C 243.21003,475.45091 242.9806,476.0199 242.52175,476.42369 C 242.45749,476.47876 241.89768,476.83209 240.8423,477.48367 C 241.93439,478.15362 242.51256,478.52071 242.57681,478.58495 C 243.07237,479.01629 243.32016,479.60823 243.32017,480.36076 L 243.32017,486.76193 M 240.00257,475.11592 L 240.00257,469.89862 L 235.96914,469.89862 L 235.96914,476.2172 L 238.44702,476.2172 L 240.00257,475.11592 M 240.08517,486.01857 L 240.08517,479.87895 L 238.50208,478.83273 L 235.96914,478.83273 L 235.96914,486.01857 L 240.08517,486.01857"
         id="path14959"
         sodipodi:nodetypes="csccccsccccccccccccccccccsscccccsscccccccccccccccccccccccccccssccccccccccccccccccccccccccccsscccccccccccccccccccccscscccccccccccccc" />
      <path
         id="path14961"
         d="M 146.9932,467.20619 L 151.55785,482.58766 L 152.32641,473.14814 L 150.88951,474.11029 L 151.64472,467.20619 L 146.9932,467.20619 z M 156.20267,467.20619 L 154.39152,474.90344 L 156.00885,474.12331 L 152.48681,485.72117 L 153.58953,489.42677 L 160.17918,467.20619 L 156.20267,467.20619 z "
         style="fill:none;fill-opacity:1;fill-rule:evenodd;stroke:#000000;stroke-width:0.62400001;stroke-miterlimit:4;stroke-dasharray:none;stroke-opacity:1;filter:url(#filter10045)" />
    </g>
    <path
       id="path15987"
       style="font-size:28.19271469px;font-style:normal;font-variant:normal;font-weight:bold;font-stretch:normal;text-align:start;line-height:125%;writing-mode:lr-tb;text-anchor:start;fill:#000000;fill-opacity:1;stroke:#000000;stroke-width:0.62400001;stroke-linecap:butt;stroke-linejoin:miter;stroke-miterlimit:4;stroke-opacity:1;font-family:Agency FB"
       d="M 146.29759,484.66951 C 146.29758,485.93598 145.92131,486.93172 145.16878,487.65672 C 144.41623,488.37255 143.40214,488.73047 142.1265,488.73047 L 135.56013,488.73047 L 135.56013,467.18672 L 142.1265,467.18672 C 143.40214,467.18674 144.41623,467.55383 145.16878,468.288 C 145.92131,469.01303 146.29758,470.00876 146.29759,471.27521 L 146.29759,484.66951 M 143.06259,484.13263 L 143.06259,471.75702 C 143.06258,470.55481 142.43393,469.9537 141.17665,469.95368 L 138.78137,469.95368 L 138.78137,485.96351 L 141.09405,485.96351 C 142.4064,485.96351 143.06258,485.35322 143.06259,484.13263 M 175.44151,488.73047 L 172.27534,488.73047 L 172.27534,477.45614 L 169.31565,477.5112 L 169.31565,488.73047 L 166.16325,488.73047 L 166.16325,474.82684 L 169.31565,474.82684 L 169.31565,475.33618 C 170.04983,475.21688 170.77943,475.10217 171.50444,474.99203 C 172.40381,474.8452 173.14259,474.77179 173.72076,474.77177 C 174.86792,474.77179 175.4415,475.33619 175.44151,476.46499 L 175.44151,488.73047 M 186.74337,488.73047 L 183.72863,488.73047 L 183.72863,488.24866 C 183.01279,488.35879 182.29696,488.46892 181.58113,488.57904 C 180.64504,488.7167 179.9338,488.78553 179.44741,488.78553 C 178.30024,488.78553 177.72666,488.22113 177.72666,487.09232 L 177.72666,482.0815 C 177.72666,480.93435 178.3186,480.36076 179.50247,480.36076 L 183.75616,480.36076 L 183.75616,477.16705 L 180.74141,477.16705 L 180.74141,479.14935 L 177.89185,479.14935 L 177.89185,476.54758 C 177.89185,475.40043 178.48379,474.82685 179.66766,474.82684 L 184.9951,474.82684 C 186.16061,474.82685 186.74336,475.40043 186.74337,476.54758 L 186.74337,488.73047 M 183.75616,486.22506 L 183.75616,482.49448 L 180.74141,482.49448 L 180.74141,486.33519 L 183.75616,486.22506 M 197.83875,480.63608 L 194.71387,480.63608 L 194.71387,477.45614 L 192.22223,477.5112 L 192.22223,488.73047 L 189.06982,488.73047 L 189.06982,474.82684 L 192.22223,474.82684 L 192.22223,475.33618 C 192.87382,475.21688 193.52082,475.09758 194.16323,474.97826 C 194.9433,474.84061 195.59489,474.77179 196.118,474.77177 C 197.26516,474.77179 197.83874,475.33619 197.83875,476.46499 L 197.83875,480.63608 M 208.63127,487.00972 C 208.63126,488.15689 208.0485,488.73047 206.88299,488.73047 L 201.4179,488.73047 C 200.23403,488.73047 199.64209,488.15689 199.64209,487.00972 L 199.64209,476.54758 C 199.64209,475.40043 200.23403,474.82685 201.4179,474.82684 L 206.88299,474.82684 C 208.0485,474.82685 208.63126,475.40043 208.63127,476.54758 L 208.63127,479.85142 L 205.56146,479.85142 L 205.56146,477.45614 L 202.73944,477.45614 L 202.73944,486.11493 L 205.56146,486.11493 L 205.56146,483.4581 L 208.63127,483.4581 L 208.63127,487.00972 M 220.20845,488.73047 L 217.04228,488.73047 L 217.04228,477.45614 L 214.08259,477.5112 L 214.08259,488.73047 L 210.93019,488.73047 L 210.93019,467.18672 L 214.08259,467.18672 L 214.08259,475.33618 C 214.81677,475.22606 215.55096,475.11135 216.28515,474.99203 C 217.21205,474.8452 217.94624,474.77179 218.48771,474.77177 C 219.63486,474.77179 220.20844,475.33619 220.20845,476.46499 L 220.20845,488.73047 M 231.17994,488.73047 L 222.71386,488.73047 L 222.71386,467.18672 L 225.9351,467.18672 L 225.9351,485.85338 L 231.17994,485.85338 L 231.17994,488.73047 M 236.39724,488.73047 L 233.176,488.73047 L 233.176,467.18672 L 236.39724,467.18672 L 236.39724,488.73047 M 249.69517,486.76193 C 249.69516,488.07429 249.03898,488.73047 247.72664,488.73047 L 239.1229,488.73047 L 239.1229,467.18672 L 247.67157,467.18672 C 248.94721,467.18674 249.58503,467.84751 249.58504,469.16902 L 249.58504,474.71671 C 249.58503,475.45091 249.3556,476.0199 248.89675,476.42369 C 248.83249,476.47876 248.27268,476.83209 247.2173,477.48367 C 248.30939,478.15362 248.88756,478.52071 248.95181,478.58495 C 249.44737,479.01629 249.69516,479.60823 249.69517,480.36076 L 249.69517,486.76193 M 246.37757,475.11592 L 246.37757,469.89862 L 242.34414,469.89862 L 242.34414,476.2172 L 244.82202,476.2172 L 246.37757,475.11592 M 246.46017,486.01857 L 246.46017,479.87895 L 244.87708,478.83273 L 242.34414,478.83273 L 242.34414,486.01857 L 246.46017,486.01857"
       inkscape:export-filename="/home/mishoo/work/jstoolkit/docroot/img/dynarchlib.png"
       inkscape:export-xdpi="196.06"
       inkscape:export-ydpi="196.06" />
    <path
       style="fill:#000000;fill-opacity:1;fill-rule:evenodd;stroke:none;stroke-width:0.5;stroke-miterlimit:4;stroke-dasharray:none;stroke-opacity:1"
       d="M 147.28906,474.51062 L 156.16406,497.82312 L 165.03906,474.51062 L 159.9567,474.51062 L 157.57401,481.12633 L 159.74904,479.70038 L 154.63389,491.3069 L 154.83063,479.36877 L 153.62835,482.0051 L 153.0272,474.51062 L 147.28906,474.51062 z "
       id="path13975"
       inkscape:export-filename="/home/mishoo/work/jstoolkit/docroot/img/dynarchlib.png"
       inkscape:export-xdpi="196.06"
       inkscape:export-ydpi="196.06" />
    <text
       xml:space="preserve"
       style="font-size:7.1600585px;font-style:normal;font-variant:normal;font-weight:normal;font-stretch:normal;text-align:start;line-height:125%;writing-mode:lr-tb;text-anchor:start;fill:#817ea4;fill-opacity:1;stroke:none;stroke-width:1px;stroke-linecap:butt;stroke-linejoin:miter;stroke-opacity:1;font-family:Arial Narrow"
       x="-205.68913"
       y="-476.01257"
       id="text17973"
       sodipodi:linespacing="125%"
       transform="scale(-0.9681221,-1.0329276)"
       inkscape:export-filename="/home/mishoo/work/jstoolkit/docroot/img/dynarchlib.png"
       inkscape:export-xdpi="196.06"
       inkscape:export-ydpi="196.06"><tspan
         sodipodi:role="line"
         id="tspan17975"
         x="-205.68913"
         y="-476.01257">no silver bullet</tspan></text>
    <text
       transform="scale(0.9957657,1.0042523)"
       sodipodi:linespacing="125%"
       id="text17995"
       y="470.04211"
       x="153.81398"
       style="font-size:7.36450577px;font-style:normal;font-variant:normal;font-weight:normal;font-stretch:normal;text-align:start;line-height:125%;writing-mode:lr-tb;text-anchor:start;fill:#4e4a76;fill-opacity:1;stroke:none;stroke-width:1px;stroke-linecap:butt;stroke-linejoin:miter;stroke-opacity:1;font-family:Arial Narrow"
       xml:space="preserve"
       inkscape:export-xdpi="196.06"
       inkscape:export-ydpi="196.06"
       inkscape:export-filename="/home/mishoo/work/jstoolkit/docroot/img/dynarchlib.png"><tspan
         y="470.04211"
         x="153.81398"
         id="tspan17997"
         sodipodi:role="line">closer to perfection</tspan></text>
    <path
       inkscape:export-ydpi="72"
       inkscape:export-xdpi="72"
       inkscape:export-filename="/home/mishoo/work/thelib/src/css/img/icons/dynarch-small.png"
       id="path2199"
       d="M 93.78906,563.51062 L 103.78906,584.07312 L 113.78906,563.51062 L 108.06246,563.51062 L 105.37774,569.34592 L 107.82847,568.08818 L 102.06492,578.32557 L 102.2866,567.79569 L 100.93192,570.12103 L 100.25457,563.51062 L 93.78906,563.51062 z "
       style="fill:#000000;fill-opacity:1;fill-rule:evenodd;stroke:none;stroke-width:0.5;stroke-miterlimit:4;stroke-dasharray:none;stroke-opacity:1" />
    <g
       id="g2461"
       inkscape:export-filename="/home/mishoo/dl-powered.png"
       inkscape:export-xdpi="117.64"
       inkscape:export-ydpi="117.64">
      <path
         style="fill:none;fill-rule:evenodd;stroke:none;stroke-width:0.37008044;stroke-linecap:butt;stroke-linejoin:miter;stroke-miterlimit:4;stroke-dasharray:none;stroke-opacity:1"
         d="M 509.16059,395.45136 L 583.18317,395.45136"
         id="path2447" />
      <path
         id="path2449"
         style="font-size:28.19271469px;font-style:normal;font-variant:normal;font-weight:bold;font-stretch:normal;text-align:start;line-height:125%;writing-mode:lr-tb;text-anchor:start;fill:#000000;fill-opacity:1;stroke:#000000;stroke-width:0.62400001;stroke-linecap:butt;stroke-linejoin:miter;stroke-miterlimit:4;stroke-opacity:1;font-family:Agency FB"
         d="M 491.29759,420.16951 C 491.29758,421.43598 490.92131,422.43172 490.16878,423.15672 C 489.41623,423.87255 488.40214,424.23047 487.1265,424.23047 L 480.56013,424.23047 L 480.56013,402.68672 L 487.1265,402.68672 C 488.40214,402.68674 489.41623,403.05383 490.16878,403.788 C 490.92131,404.51303 491.29758,405.50876 491.29759,406.77521 L 491.29759,420.16951 M 488.06259,419.63263 L 488.06259,407.25702 C 488.06258,406.05481 487.43393,405.4537 486.17665,405.45368 L 483.78137,405.45368 L 483.78137,421.46351 L 486.09405,421.46351 C 487.4064,421.46351 488.06258,420.85322 488.06259,419.63263 M 520.44151,424.23047 L 517.27534,424.23047 L 517.27534,412.95614 L 514.31565,413.0112 L 514.31565,424.23047 L 511.16325,424.23047 L 511.16325,410.32684 L 514.31565,410.32684 L 514.31565,410.83618 C 515.04983,410.71688 515.77943,410.60217 516.50444,410.49203 C 517.40381,410.3452 518.14259,410.27179 518.72076,410.27177 C 519.86792,410.27179 520.4415,410.83619 520.44151,411.96499 L 520.44151,424.23047 M 531.74337,424.23047 L 528.72863,424.23047 L 528.72863,423.74866 C 528.01279,423.85879 527.29696,423.96892 526.58113,424.07904 C 525.64504,424.2167 524.9338,424.28553 524.44741,424.28553 C 523.30024,424.28553 522.72666,423.72113 522.72666,422.59232 L 522.72666,417.5815 C 522.72666,416.43435 523.3186,415.86076 524.50247,415.86076 L 528.75616,415.86076 L 528.75616,412.66705 L 525.74141,412.66705 L 525.74141,414.64935 L 522.89185,414.64935 L 522.89185,412.04758 C 522.89185,410.90043 523.48379,410.32685 524.66766,410.32684 L 529.9951,410.32684 C 531.16061,410.32685 531.74336,410.90043 531.74337,412.04758 L 531.74337,424.23047 M 528.75616,421.72506 L 528.75616,417.99448 L 525.74141,417.99448 L 525.74141,421.83519 L 528.75616,421.72506 M 542.83875,416.13608 L 539.71387,416.13608 L 539.71387,412.95614 L 537.22223,413.0112 L 537.22223,424.23047 L 534.06982,424.23047 L 534.06982,410.32684 L 537.22223,410.32684 L 537.22223,410.83618 C 537.87382,410.71688 538.52082,410.59758 539.16323,410.47826 C 539.9433,410.34061 540.59489,410.27179 541.118,410.27177 C 542.26516,410.27179 542.83874,410.83619 542.83875,411.96499 L 542.83875,416.13608 M 553.63127,422.50972 C 553.63126,423.65689 553.0485,424.23047 551.88299,424.23047 L 546.4179,424.23047 C 545.23403,424.23047 544.64209,423.65689 544.64209,422.50972 L 544.64209,412.04758 C 544.64209,410.90043 545.23403,410.32685 546.4179,410.32684 L 551.88299,410.32684 C 553.0485,410.32685 553.63126,410.90043 553.63127,412.04758 L 553.63127,415.35142 L 550.56146,415.35142 L 550.56146,412.95614 L 547.73944,412.95614 L 547.73944,421.61493 L 550.56146,421.61493 L 550.56146,418.9581 L 553.63127,418.9581 L 553.63127,422.50972 M 565.20845,424.23047 L 562.04228,424.23047 L 562.04228,412.95614 L 559.08259,413.0112 L 559.08259,424.23047 L 555.93019,424.23047 L 555.93019,402.68672 L 559.08259,402.68672 L 559.08259,410.83618 C 559.81677,410.72606 560.55096,410.61135 561.28515,410.49203 C 562.21205,410.3452 562.94624,410.27179 563.48771,410.27177 C 564.63486,410.27179 565.20844,410.83619 565.20845,411.96499 L 565.20845,424.23047 M 576.17994,424.23047 L 567.71386,424.23047 L 567.71386,402.68672 L 570.9351,402.68672 L 570.9351,421.35338 L 576.17994,421.35338 L 576.17994,424.23047 M 581.39724,424.23047 L 578.176,424.23047 L 578.176,402.68672 L 581.39724,402.68672 L 581.39724,424.23047 M 594.69517,422.26193 C 594.69516,423.57429 594.03898,424.23047 592.72664,424.23047 L 584.1229,424.23047 L 584.1229,402.68672 L 592.67157,402.68672 C 593.94721,402.68674 594.58503,403.34751 594.58504,404.66902 L 594.58504,410.21671 C 594.58503,410.95091 594.3556,411.5199 593.89675,411.92369 C 593.83249,411.97876 593.27268,412.33209 592.2173,412.98367 C 593.30939,413.65362 593.88756,414.02071 593.95181,414.08495 C 594.44737,414.51629 594.69516,415.10823 594.69517,415.86076 L 594.69517,422.26193 M 591.37757,410.61592 L 591.37757,405.39862 L 587.34414,405.39862 L 587.34414,411.7172 L 589.82202,411.7172 L 591.37757,410.61592 M 591.46017,421.51857 L 591.46017,415.37895 L 589.87708,414.33273 L 587.34414,414.33273 L 587.34414,421.51857 L 591.46017,421.51857"
         inkscape:export-filename="/home/mishoo/work/jstoolkit/docroot/img/dynarchlib.png"
         inkscape:export-xdpi="196.06"
         inkscape:export-ydpi="196.06" />
      <path
         style="fill:#000000;fill-opacity:1;fill-rule:evenodd;stroke:none;stroke-width:0.5;stroke-miterlimit:4;stroke-dasharray:none;stroke-opacity:1"
         d="M 492.28906,410.01062 L 501.16406,433.32312 L 510.03906,410.01062 L 504.9567,410.01062 L 502.57401,416.62633 L 504.74904,415.20038 L 499.63389,426.8069 L 499.83063,414.86877 L 498.62835,417.5051 L 498.0272,410.01062 L 492.28906,410.01062 z"
         id="path2451"
         inkscape:export-filename="/home/mishoo/work/jstoolkit/docroot/img/dynarchlib.png"
         inkscape:export-xdpi="196.06"
         inkscape:export-ydpi="196.06" />
      <text
         xml:space="preserve"
         style="font-size:7.1600585px;font-style:normal;font-variant:normal;font-weight:normal;font-stretch:normal;text-align:start;line-height:125%;writing-mode:lr-tb;text-anchor:start;fill:#817ea4;fill-opacity:1;stroke:none;stroke-width:1px;stroke-linecap:butt;stroke-linejoin:miter;stroke-opacity:1;font-family:Arial Narrow"
         x="-562.04913"
         y="-413.5687"
         id="text2453"
         sodipodi:linespacing="125%"
         transform="scale(-0.9681221,-1.0329276)"
         inkscape:export-filename="/home/mishoo/work/jstoolkit/docroot/img/dynarchlib.png"
         inkscape:export-xdpi="196.06"
         inkscape:export-ydpi="196.06"><tspan
           sodipodi:role="line"
           id="tspan2455"
           x="-562.04913"
           y="-413.5687">no silver bullet</tspan></text>
      <text
         transform="scale(1.0119379,0.988203)"
         sodipodi:linespacing="125%"
         id="text2457"
         y="411.31509"
         x="489.73535"
         style="font-size:8.46056652px;font-style:normal;font-variant:normal;font-weight:normal;font-stretch:normal;text-align:start;line-height:125%;writing-mode:lr-tb;text-anchor:start;fill:#4e4a76;fill-opacity:1;stroke:none;stroke-width:1px;stroke-linecap:butt;stroke-linejoin:miter;stroke-opacity:1;font-family:Arial;-inkscape-font-specification:Arial"
         xml:space="preserve"
         inkscape:export-xdpi="196.06"
         inkscape:export-ydpi="196.06"
         inkscape:export-filename="/home/mishoo/work/jstoolkit/docroot/img/dynarchlib.png"><tspan
           dx="0 1.2703012 1.2703012 1.2703012 1.2703012 1.2703012 1.2703012 1.2703012 1.2703012 1.2703012"
           y="411.31509"
           x="489.73535"
           id="tspan2459"
           sodipodi:role="line">powered by</tspan></text>
    </g>
  </g>
</svg>
